<?xml version="1.0" encoding="utf-8"?>
<!-- Generator: Adobe Illustrator 15.0.0, SVG Export Plug-In . SVG Version: 6.00 Build 0)  -->
<!DOCTYPE svg PUBLIC "-//W3C//DTD SVG 1.1//EN" "http://www.w3.org/Graphics/SVG/1.1/DTD/svg11.dtd">
<svg version="1.1" id="Capa_1" xmlns="http://www.w3.org/2000/svg" xmlns:xlink="http://www.w3.org/1999/xlink" x="0px" y="0px"
	 width="25px" height="25px" viewBox="0 0 25 25" enable-background="new 0 0 25 25" xml:space="preserve">
<path fill="#FFFFFF" d="M20.666,17.224c0.034,0.265-0.047,0.495-0.243,0.692l-2.301,2.283c-0.104,0.115-0.24,0.214-0.407,0.295
	c-0.166,0.081-0.331,0.132-0.493,0.155c-0.012,0-0.046,0.003-0.104,0.009c-0.057,0.005-0.132,0.009-0.224,0.009
	c-0.22,0-0.574-0.037-1.064-0.112S14.739,20.294,14.03,20c-0.71-0.294-1.515-0.735-2.416-1.323
	c-0.899-0.588-1.857-1.396-2.872-2.422c-0.808-0.796-1.477-1.558-2.007-2.284s-0.958-1.399-1.28-2.016
	c-0.323-0.617-0.565-1.178-0.727-1.679C4.567,9.774,4.457,9.342,4.399,8.978C4.341,8.615,4.318,8.329,4.33,8.122
	c0.012-0.207,0.018-0.323,0.018-0.347C4.371,7.614,4.422,7.45,4.503,7.283C4.584,7.115,4.682,6.98,4.797,6.876l2.302-2.302
	C7.26,4.413,7.445,4.333,7.652,4.333c0.15,0,0.283,0.043,0.398,0.13c0.115,0.086,0.214,0.193,0.294,0.319l1.853,3.513
	C10.3,8.479,10.329,8.682,10.282,8.9c-0.046,0.219-0.144,0.404-0.294,0.554l-0.848,0.848c-0.023,0.023-0.043,0.061-0.061,0.113
	c-0.017,0.052-0.026,0.095-0.026,0.13c0.046,0.241,0.15,0.519,0.312,0.83c0.138,0.276,0.352,0.614,0.64,1.013
	c0.289,0.397,0.698,0.856,1.229,1.374c0.519,0.532,0.98,0.943,1.384,1.238c0.404,0.294,0.742,0.51,1.013,0.649
	c0.271,0.139,0.479,0.222,0.623,0.25l0.215,0.043c0.024,0,0.062-0.009,0.113-0.025c0.052-0.018,0.09-0.037,0.112-0.061l0.986-1.004
	c0.208-0.184,0.45-0.276,0.727-0.276c0.196,0,0.353,0.034,0.468,0.104h0.018l3.339,1.973C20.475,16.803,20.619,16.992,20.666,17.224
	"/>
</svg>
