<?xml version="1.0" encoding="utf-8"?>
<!-- Generator: Adobe Illustrator 15.0.0, SVG Export Plug-In . SVG Version: 6.00 Build 0)  -->
<!DOCTYPE svg PUBLIC "-//W3C//DTD SVG 1.1//EN" "http://www.w3.org/Graphics/SVG/1.1/DTD/svg11.dtd">
<svg version="1.1" id="Capa_2" xmlns="http://www.w3.org/2000/svg" xmlns:xlink="http://www.w3.org/1999/xlink" x="0px" y="0px"
	 width="25px" height="25px" viewBox="0 0 25 25" enable-background="new 0 0 25 25" xml:space="preserve">
<g>
	<path fill="#FFFFFF" d="M183.6,329.904c2.448-70.992,48.96-124.848,122.4-124.848c95.472,0,124.848,58.752,124.848,97.92
		c0,95.472-83.232,83.231-90.576,144.432v19.584h-70.992V444.96c7.345-85.68,80.784-78.336,80.784-132.192
		c0-31.824-17.136-44.063-41.616-44.063c-36.72,0-51.407,29.376-51.407,66.096H183.6V329.904z"/>
	<circle fill="#FFFFFF" cx="306" cy="545.328" r="39.168"/>
</g>
<g>
	<path fill="#FFFFFF" d="M7.376,9.581c0.107-3.103,2.14-5.456,5.35-5.456c4.172,0,5.457,2.568,5.457,4.279
		c0,4.173-3.638,3.638-3.958,6.313v0.855h-3.103V14.61c0.321-3.745,3.531-3.424,3.531-5.778c0-1.39-0.749-1.925-1.819-1.925
		c-1.604,0-2.247,1.283-2.247,2.888h-3.21V9.581z"/>
	<circle fill="#FFFFFF" cx="12.726" cy="18.996" r="1.712"/>
</g>
</svg>
