<?xml version="1.0" encoding="utf-8"?>
<!-- Generator: Adobe Illustrator 15.0.0, SVG Export Plug-In . SVG Version: 6.00 Build 0)  -->
<!DOCTYPE svg PUBLIC "-//W3C//DTD SVG 1.1//EN" "http://www.w3.org/Graphics/SVG/1.1/DTD/svg11.dtd">
<svg version="1.1" id="Capa_1" xmlns="http://www.w3.org/2000/svg" xmlns:xlink="http://www.w3.org/1999/xlink" x="0px" y="0px"
	 width="25px" height="25px" viewBox="0 0 25 25" enable-background="new 0 0 25 25" xml:space="preserve">
<path fill="#FFFFFF" d="M21.032,7.209c-0.63,0.28-1.306,0.468-2.012,0.552c0.722-0.435,1.274-1.119,1.539-1.937
	c-0.676,0.402-1.428,0.691-2.226,0.849c-0.635-0.681-1.545-1.105-2.554-1.105c-1.932,0-3.499,1.568-3.499,3.501
	c0,0.274,0.03,0.542,0.088,0.798c-2.908-0.147-5.487-1.54-7.215-3.658c-0.3,0.518-0.473,1.118-0.473,1.76
	c0,1.214,0.618,2.287,1.558,2.914c-0.574-0.018-1.115-0.178-1.586-0.439v0.046c0,1.695,1.207,3.11,2.808,3.431
	C7.166,14,6.856,14.043,6.539,14.043c-0.227,0-0.444-0.021-0.661-0.063c0.448,1.391,1.738,2.402,3.271,2.432
	c-1.197,0.939-2.706,1.498-4.347,1.498c-0.283,0-0.56-0.018-0.834-0.049c1.547,0.992,3.389,1.57,5.365,1.57
	c6.439,0,9.961-5.332,9.961-9.958c0-0.15-0.005-0.3-0.009-0.453C19.965,8.527,20.56,7.91,21.032,7.209z"/>
</svg>
